<?xml version="1.0" standalone="no"?>
<!DOCTYPE svg PUBLIC "-//W3C//DTD SVG 1.1//EN" "http://www.w3.org/Graphics/SVG/1.1/DTD/svg11.dtd" >
<svg xmlns="http://www.w3.org/2000/svg">
<metadata>Generated by IcoMoon</metadata>
<defs>
<font id="winda" horiz-adv-x="1024">
<font-face units-per-em="1024" ascent="960" descent="-64" />
<missing-glyph horiz-adv-x="1024" />
<glyph unicode="&#x20;" horiz-adv-x="0" d="" />
<glyph unicode="&#xe900;" glyph-name="btn_calendar" d="M185.6 51.2h646.4c64 0 115.2 51.2 115.2 115.2v512c0 64-51.2 115.2-115.2 115.2h-38.4v-76.8c0-38.4-32-76.8-76.8-76.8h-38.4c-38.4 0-76.8 32-76.8 76.8v76.8h-179.2v-76.8c0-38.4-38.4-76.8-76.8-76.8h-38.4c-44.8 0-76.8 32-76.8 76.8v76.8h-44.8c-57.6 0-108.8-51.2-108.8-115.2v-512c0-64 51.2-115.2 108.8-115.2zM147.2 576h729.6v-416c0-19.2-19.2-38.4-38.4-38.4h-652.8c-19.2 0-38.4 19.2-38.4 38.4v416zM345.6 844.8c12.8 0 25.6-12.8 25.6-25.6v-108.8c0-12.8-12.8-25.6-25.6-25.6h-38.4c-12.8 6.4-25.6 19.2-25.6 32v108.8c0 12.8 12.8 25.6 25.6 25.6h38.4v-6.4zM742.4 825.6v-108.8c0-12.8-12.8-25.6-25.6-25.6h-38.4c-12.8 0-25.6 12.8-25.6 25.6v108.8c0 12.8 12.8 25.6 25.6 25.6h38.4c19.2-6.4 25.6-12.8 25.6-25.6z" />
<glyph unicode="&#xe901;" glyph-name="btn_close" d="M780.8 710.4c-25.6 25.6-70.4 25.6-89.6 0l-172.8-179.2-179.2 179.2c-25.6 25.6-64 25.6-89.6 0v0c-32-25.6-32-70.4-6.4-96l172.8-172.8-147.2-147.2c-25.6-25.6-25.6-70.4 0-96v0c25.6-25.6 70.4-25.6 89.6 0l147.2 147.2 147.2-147.2c25.6-25.6 64-25.6 89.6 0v0c25.6 25.6 25.6 70.4 0 96l-134.4 147.2 172.8 172.8c32 25.6 32 70.4 0 96z" />
<glyph unicode="&#xe902;" glyph-name="btn_table_collapse" d="M512 947.2c-275.2 0-499.2-224-499.2-499.2s224-499.2 499.2-499.2c275.2 0 499.2 224 499.2 499.2s-224 499.2-499.2 499.2zM620.8 390.4h-217.6v115.2h211.2v-115.2z" />
<glyph unicode="&#xe903;" glyph-name="btn_table_expand" d="M512 947.2c-275.2 0-499.2-224-499.2-499.2s224-499.2 499.2-499.2c275.2 0 499.2 224 499.2 499.2s-224 499.2-499.2 499.2zM697.6 403.2h-147.2v-147.2h-83.2v147.2h-140.8v83.2h147.2v147.2h83.2v-147.2h147.2v-83.2z" />
<glyph unicode="&#xe904;" glyph-name="ic_chevrone" d="M396.8 153.6c-12.8 0-32 6.4-44.8 19.2-25.6 25.6-25.6 64 0 83.2l198.4 198.4-198.4 198.4c-25.6 25.6-25.6 64 0 83.2s64 25.6 83.2 0l236.8-236.8c25.6-25.6 25.6-64 0-83.2l-236.8-236.8c-6.4-19.2-25.6-25.6-38.4-25.6z" />
<glyph unicode="&#xe905;" glyph-name="ic_titles_about" d="M429.576 83.036c-22.203 0-39.075 7.242-50.137 21.487-17.866 23.039-19.020 61.716-3.621 121.721l42.099 177.21c1.83 6.963 3.064 12.276 3.939 16.314-16.633-5.929-45.402-18.761-65.735-32.708-3.74-2.487-8.316-3.362-12.733-2.487-4.377 0.995-8.197 3.721-10.505 7.58l-18.344 30.719c-4.059 6.824-2.626 15.598 3.422 20.751 91.599 78.11 197.444 124.765 246.824 124.765 15.877 0 28.968-6.128 37.841-17.747 16.434-21.408 17.23-60.224 2.427-115.374l-48.267-186.461c-2.785-10.584-3.86-17.588-4.218-22.084 12.693 4.099 37.682 15.121 64.581 36.687 3.462 2.746 7.958 3.9 12.335 3.422 4.417-0.597 8.396-2.945 11.022-6.526l20.811-28.451c4.695-6.446 4.059-15.359-1.512-21.049-91.241-93.071-189.644-127.769-230.231-127.769zM433.794 455.799c7.043 0 13.211-2.905 17.269-8.177 8.356-10.803 5.014-26.859-1.472-52.007l-42.099-177.21c-16.275-63.308-8.396-85.989-2.268-93.907 2.945-3.78 8.674-8.834 24.352-8.834 27.535 0 113.564 27.496 197.125 108.232l-2.785 3.86c-31.515-22.203-64.183-35.533-79.224-35.533-7.521 0-14.126 3.223-18.622 9.072-8.038 10.346-8.277 27.018-0.836 55.708l48.267 186.581c16.911 62.85 6.764 82.646 3.263 87.222-1.87 2.467-4.775 4.994-11.977 4.994-35.653 0-128.485-37.543-215.111-108.172l2.666-4.477c28.888 16.732 67.605 32.649 81.452 32.649zM549.586 624.573c-26.302 0-48.187 8.197-63.268 23.716-14.842 15.28-22.323 36.866-21.567 62.392-0.040 40.985 34.34 102.283 108.112 102.283 50.654 0 86.068-34.777 86.068-84.556 0-56.285-50.097-103.835-109.346-103.835zM572.864 780.375c-51.529 0-75.524-41.86-75.524-70.152-0.477-16.991 3.78-30.4 12.375-39.214 8.794-9.052 22.562-13.847 39.871-13.847 45.919 0 76.717 36.847 76.717 71.246 0 25.128-14.046 51.967-53.439 51.967z" />
<glyph unicode="&#xe906;" glyph-name="ic_titles_accreditations" d="M275.481 318.33c-58.28 0-105.695-47.414-105.695-105.694s47.415-105.694 105.695-105.694c58.279 0 105.694 47.415 105.694 105.694s-47.415 105.694-105.694 105.694zM276.649 138.82c-41.347 0-74.985 33.638-74.985 74.984s33.638 74.985 74.985 74.985 74.985-33.638 74.985-74.985c0-41.346-33.638-74.984-74.985-74.984zM303.118 717.167l-39.463-39.464-15.811 15.812c-4.332 4.33-11.35 4.33-15.681 0-4.33-4.33-4.33-11.35 0-15.678l23.652-23.652c2.164-2.166 5.004-3.248 7.84-3.248s5.674 1.082 7.84 3.248l47.305 47.304c4.329 4.33 4.329 11.35 0 15.678-4.332 4.33-11.35 4.33-15.682 0zM303.118 480.648l-39.463-39.465-15.811 15.813c-4.332 4.33-11.35 4.33-15.681 0-4.33-4.331-4.33-11.351 0-15.68l23.652-23.652c2.164-2.165 5.004-3.248 7.84-3.248s5.674 1.083 7.84 3.248l47.305 47.304c4.329 4.331 4.329 11.35 0 15.68-4.332 4.33-11.35 4.33-15.682 0zM426.893 706.115h213.171c6.133 0 11.103 7.111 11.103 15.885s-4.969 15.886-11.103 15.886h-213.171c-6.132 0-11.103-7.112-11.103-15.886s4.97-15.885 11.103-15.885zM426.937 620.414h416.131c6.157 0 11.147 7.112 11.147 15.886s-4.99 15.885-11.147 15.885h-416.131c-6.157 0-11.146-7.112-11.146-15.885s4.989-15.886 11.146-15.886zM426.893 470.751h213.171c6.133 0 11.103 7.113 11.103 15.886s-4.969 15.886-11.103 15.886h-213.171c-6.132 0-11.103-7.112-11.103-15.886s4.97-15.886 11.103-15.886zM426.937 385.050h416.131c6.157 0 11.147 7.113 11.147 15.886s-4.99 15.886-11.147 15.886h-416.131c-6.157 0-11.146-7.113-11.146-15.886s4.989-15.886 11.146-15.886zM426.893 235.388h213.171c6.133 0 11.103 7.112 11.103 15.885s-4.969 15.886-11.103 15.886h-213.171c-6.132 0-11.103-7.112-11.103-15.886s4.97-15.885 11.103-15.885zM426.937 149.687h416.131c6.157 0 11.147 7.113 11.147 15.886 0 8.774-4.99 15.885-11.147 15.885h-416.131c-6.157 0-11.146-7.111-11.146-15.885s4.989-15.886 11.146-15.886zM275.481 553.695c-58.28 0-105.695-47.415-105.695-105.695s47.415-105.694 105.695-105.694c58.279 0 105.694 47.415 105.694 105.694s-47.415 105.695-105.694 105.695zM276.649 374.183c-41.347 0-74.985 33.639-74.985 74.986s33.638 74.985 74.985 74.985 74.985-33.639 74.985-74.985c0-41.347-33.638-74.986-74.985-74.986zM275.481 789.059c-58.28 0-105.695-47.415-105.695-105.695s47.415-105.694 105.695-105.694c58.279 0 105.694 47.415 105.694 105.694s-47.415 105.695-105.694 105.695zM276.649 609.548c-41.347 0-74.985 33.638-74.985 74.985 0 41.346 33.638 74.985 74.985 74.985s74.985-33.639 74.985-74.985c0-41.347-33.638-74.985-74.985-74.985z" />
<glyph unicode="&#xe907;" glyph-name="ic_titles_certifications" d="M605.487 400.791h186.974v-31.472h-186.974v31.472zM512.001 495.211h280.461v-31.474h-280.461v31.474zM823.624 746.993h-623.247c-34.279 0-62.325-28.325-62.325-62.946v-409.148c0-34.62 28.046-62.946 62.325-62.946h62.324v-125.892l77.905 78.683 77.907-78.683v125.892h405.11c34.277 0 62.324 28.325 62.324 62.946v409.148c0 34.621-28.047 62.946-62.324 62.946zM387.351 161.597l-46.745 47.21-46.742-47.21v122.745c15.581-6.294 31.163-9.442 46.742-9.442 15.582 0 31.163 3.148 46.745 9.442v-122.745zM340.606 306.373c-43.627 0-77.905 34.619-77.905 78.682s34.278 78.682 77.905 78.682c43.628 0 77.907-34.619 77.907-78.682s-34.279-78.682-77.907-78.682zM854.785 274.9c0-18.883-12.464-31.472-31.161-31.472h-405.11v66.093c18.696 18.883 31.161 47.21 31.161 75.535 0 59.798-49.86 110.156-109.069 110.156-59.208 0-109.068-50.358-109.068-110.156 0-31.474 12.464-56.652 31.163-75.535v-66.093h-62.324c-18.699 0-31.163 15.736-31.163 31.472v409.148c0 18.884 12.464 31.474 31.163 31.474h623.247c18.697 0 31.161-15.736 31.161-31.474v-409.148zM231.539 589.629h560.922v-31.474h-560.922v31.474z" />
<glyph unicode="&#xe908;" glyph-name="ic_titles_courses" d="M332.888 490.27c-44.464 0-80.637 36.156-80.637 80.597s36.176 80.598 80.637 80.598c44.465 0 80.639-36.158 80.639-80.598s-36.174-80.597-80.639-80.597zM332.888 619.283c-26.707 0-48.437-21.718-48.437-48.413s21.73-48.413 48.437-48.413c26.709 0 48.439 21.717 48.439 48.413s-21.73 48.413-48.439 48.413zM888.424 264.957h-21.045v461.345c0 8.889-7.209 16.092-16.101 16.092h-678.559c-8.891 0-16.1-7.203-16.1-16.092v-461.345h-21.044c-8.894 0-16.101-7.205-16.101-16.091v-45.921c0-8.889 7.207-16.092 16.101-16.092h80.122v-17.156c0-8.889 7.206-16.092 16.1-16.092h197.077c8.895 0 16.101 7.203 16.101 16.092v17.156h443.45c8.895 0 16.101 7.203 16.101 16.092v45.921c0 8.888-7.206 16.091-16.101 16.091zM215.697 219.037h-64.022v13.737h64.022v-13.737zM215.697 435.298v-170.341h-26.877v445.254h646.36v-445.254h-390.206v82.66l62.243-54.946c5.395-4.215 10.072-4.061 10.976-4.030 4.369 0.076 8.519 1.924 11.493 5.121l128.579 138.094c7.362 7.825 11.15 18.008 10.673 28.674-0.39 8.728-3.655 16.883-9.238 23.532l94.373 101.221c6.060 6.502 5.7 16.684-0.805 22.745-6.503 6.057-16.692 5.695-22.756-0.802l-94.269-101.111c-6.677 4.917-14.786 7.566-23.288 7.377-10.652-0.173-20.959-4.742-28.238-12.49l-70.785-75.817c0 0-54.166 50.672-54.782 51.102-9.149 7.181-20.531 11.122-32.191 11.122h-159.131c-28.744-0.002-52.131-23.378-52.131-52.111zM633.831 464.64c0.107-0.101 0.217-0.2 0.325-0.299 2.047-1.822 2.552-3.859 2.613-5.247 0.087-1.911-0.611-3.754-2.047-5.28l-12.554-13.547-26.819 25.127 12.804 13.534c1.907 2.030 4.16 2.367 5.331 2.383 0.974-0.004 2.878-0.176 4.351-1.645 0.113-0.111 0.227-0.222 0.346-0.33l15.65-14.696zM439.532 395.362c-4.744 4.192-11.507 5.207-17.277 2.608-5.77-2.603-9.481-8.342-9.481-14.669v-197.512h-164.877v249.509c0 10.987 8.941 19.927 19.931 19.927h159.133c5.916 0 10.154-2.471 12.667-4.54l0.020-0.019 64.078-60.031c3.125-2.931 7.29-4.516 11.577-4.341 4.282 0.148 8.329 2.003 11.24 5.142l46.801 50.464 26.912-25.215-83.455-89.536-77.268 68.213zM872.325 219.037h-427.351v13.737h427.351v-13.737z" />
<glyph unicode="&#xe909;" glyph-name="ic_titles_credits" d="M840.841 503.547h-31.229v143.656c0 34.44-28.021 62.459-62.461 62.459h-42.298l-43.286 77.822c-6.597 11.894-19.151 19.276-32.769 19.276-6.346 0-12.641-1.637-18.199-4.722l-166.123-92.376h-185.558c-34.441 0-62.461-28.018-62.461-62.458v-428.879c0-34.441 28.020-62.46 62.461-62.46h488.234c34.44 0 62.461 28.019 62.461 62.46v125.954h31.229v159.267zM747.151 684.68c19.236 0 34.952-14.614 37.063-33.314h-46.946l-18.515 33.314h28.398zM617.383 772.503c5.859 3.285 13.743 0.988 16.977-4.848l64.342-116.278h-285.234l203.914 121.126zM777.558 225.226c0-20.661-16.815-37.477-37.477-37.477h-475.903c-20.662 0-37.477 16.815-37.477 37.477v417.878c0 20.662 16.815 37.476 37.477 37.476h135.376l-59.912-29.216h-72.916c-6.908 0-12.258-9.894-12.258-16.789 0-6.896 5.351-15.059 12.258-15.059h510.832v-115.979h-84.285c-42.424 0-76.952-34.527-76.952-76.948v-5.373c0-42.422 34.528-76.948 76.952-76.948h84.285v-119.042zM809.612 373.093h-111.731c-28.657 0-51.969 19.478-51.969 48.136v5.373c0 28.656 20.571 49.227 49.23 49.227h111.731l2.739-102.736zM731.534 422.89c0-15.24-12.343-27.581-27.582-27.581-15.241 0-27.58 12.342-27.58 27.581s12.341 27.58 27.58 27.58c15.242 0.003 27.582-12.353 27.582-27.58z" />
<glyph unicode="&#xe90a;" glyph-name="ic_titles_edit_profile" d="M377.256 259.332c-27.177 0-54.792 20.174-70.112 40.587-28.53 38.040-26.143 98.125-8.993 137.797 21.288 49.421 71.783 77.772 138.513 77.772h48.267c3.939 0 7.68-1.651 10.385-4.516 2.706-2.845 4.098-6.725 3.86-10.644-0.239-3.462-0.040-14.942 3.382-21.845 3.303-6.745 2.507-14.862-0.836-41.94-4.496-36.548-13.41-109.087 7.361-134.633 20.771 25.546 11.818 98.045 7.322 134.633-3.342 27.078-4.138 35.195-0.836 41.94 3.422 6.904 3.621 18.383 3.382 21.845-0.239 3.919 1.154 7.799 3.86 10.644 2.706 2.865 6.446 4.516 10.385 4.516h48.267c78.030 0 117.861-34.658 137.598-63.745 4.417-6.526 2.706-15.379-3.82-19.796-6.486-4.457-15.32-2.766-19.816 3.8-23.039 33.982-61.358 51.211-113.962 51.211h-34.539c-0.756-6.546-2.387-14.245-5.73-21.089 0.438-0.816 2.069-14.106 3.541-25.844 6.565-53.36 17.548-142.651-28.57-168.993-4.377-2.547-9.789-2.547-14.166 0-46.118 26.342-35.136 115.633-28.61 168.993 1.472 11.738 3.104 25.029 2.706 28.431-2.905 5.551-4.337 12.415-5.014 18.503h-34.419c-32.191 0-89.61-7.859-112.33-60.542-13.529-31.355-16.155-80.338 5.65-109.386 9.51-12.693 25.387-24.83 39.672-28.252 0.716 13.967 0.398 28.411 0.040 42.537-0.199 8.277-0.398 16.553-0.398 24.71 0 7.879 6.367 14.245 14.245 14.245s14.245-6.367 14.245-14.245c0-7.918 0.199-15.956 0.398-23.994 0.477-19.617 0.995-39.871-1.273-59.687-0.716-6.406-5.69-11.539-12.096-12.494-2.507-0.358-5.053-0.517-7.56-0.517zM513.899 524.023c-58.453 0-105.964 47.65-105.964 106.222s47.511 106.222 105.964 106.222 105.964-47.65 105.964-106.222-47.511-106.222-105.964-106.222zM513.899 707.937c-42.696 0-77.473-34.857-77.473-77.692s34.777-77.692 77.473-77.692 77.473 34.857 77.473 77.692-34.777 77.692-77.473 77.692zM641.23 364.54h-62.193c-7.879 0-14.245 6.367-14.245 14.245s6.367 14.245 14.245 14.245h62.193c7.879 0 14.245-6.367 14.245-14.245s-6.367-14.245-14.245-14.245zM437.062 101.839c-0.875 0-1.791 0.080-2.746 0.239-169.311 33.027-292.186 183.397-292.186 357.503 0 200.806 162.069 364.188 361.303 364.188s361.303-163.382 361.303-364.188c0-7.879-6.367-14.265-14.245-14.265s-14.245 6.386-14.245 14.265c0 185.088-149.296 335.658-332.813 335.658s-332.813-150.57-332.813-335.658c0-160.497 113.206-299.090 269.187-329.49 7.719-1.512 12.773-8.993 11.261-16.752-1.353-6.804-7.322-11.5-14.007-11.5zM870.263 372.146l-37.895 37.91c-15.477 15.484-40.647 15.457-56.123 0l-204.645-204.728-28.201-103.475-6.902-6.903c-5.16-5.162-5.172-13.488-0.079-18.689l-0.068-0.267 0.253 0.067c2.58-2.54 5.931-3.83 9.295-3.83 3.404 0 6.808 1.303 9.401 3.898l6.914 6.916 103.42 28.214 204.633 204.728c15.476 15.496 15.476 40.676 0 56.159zM602.299 198.426l136.196 136.251 56.417-56.427-136.196-136.263-56.417 56.44zM590.305 172.806l42.816-42.832-58.877-16.068 16.061 58.9zM851.46 334.809l-37.747-37.764-56.418 56.427 37.749 37.763c5.119 5.122 13.429 5.109 18.535 0.014l37.895-37.91c5.092-5.095 5.092-13.422-0.015-18.53z" />
<glyph unicode="&#xe90b;" glyph-name="ic_titles_orders" d="M721.56 791.591h-418.97c-41.957 0-76.029-34.084-76.029-76.056v-358.706l-48.057 59.839c-7.141 7.145-18.597 7.145-25.739 0-7.141-7.143-7.141-18.604 0-25.748l79.3-79.331c3.571-3.572 8.184-5.358 12.944-5.358 4.761 0 9.373 1.786 12.944 5.358l79.302 79.331c7.141 7.144 7.141 18.605 0 25.748-7.141 7.145-18.599 7.145-25.74 0l-48.205-59.987v358.854c0 21.878 17.705 39.591 39.576 39.591h418.823c21.869 0 39.576-17.712 39.576-39.591v-50.605c0-10.122 8.183-18.308 18.301-18.308 10.117 0 18.299 8.186 18.299 18.308v50.605c-0.446 41.823-34.518 76.056-76.325 76.056zM766.342 584.261l-79.299-79.331c-7.144-7.144-7.144-18.604 0-25.748 3.571-3.573 8.182-5.358 12.944-5.358 4.76 0 9.373 1.785 12.944 5.358l48.204 59.988v-358.704c0-21.88-17.704-39.592-39.576-39.592h-418.97c-21.871 0-39.578 17.712-39.578 39.592v50.604c0 10.122-8.181 18.307-18.298 18.307-10.118 0-18.301-8.185-18.301-18.307v-50.604c0-41.973 34.071-76.057 76.027-76.057h418.822c41.957 0 76.027 34.084 76.027 76.057v358.704l48.206-59.988c7.141-7.145 18.597-7.145 25.739 0 7.141 7.144 7.141 18.604 0 25.748l-79.3 79.331c-6.546 6.847-18.748 6.847-25.591 0zM512.075 609.265c-10.118 0-18.302-8.186-18.302-18.307v-27.982h-2.379c-34.815 0-63.233-29.916-63.233-66.529 0-36.614 28.417-66.529 63.233-66.529h41.064c14.73 0 26.781-13.545 26.781-30.067 0-16.67-12.051-30.065-26.781-30.065h-73.797c-10.117 0-18.301-8.186-18.301-18.308s8.184-18.307 18.301-18.307h35.112v-28.428c0-10.12 8.184-18.308 18.302-18.308s18.299 8.187 18.299 18.308v28.576h2.679c0.148 0 0.298 0 0.446 0 34.518 0.447 62.339 30.215 62.339 66.531 0 36.764-28.416 66.531-63.232 66.531h-41.063c-14.731 0-26.781 13.544-26.781 30.066s12.050 30.065 26.781 30.065h72.457c10.117 0 18.299 8.186 18.299 18.308 0 10.12-8.183 18.307-18.299 18.307h-33.626v27.982c-0.148 9.971-8.183 18.157-18.299 18.157z" />
<glyph unicode="&#xe90c;" glyph-name="ic_titles_purchase" d="M631.672 732.691c-18.784 0-37.423-2.134-55.477-5.746-18.295 3.749-37.251 5.746-56.594 5.746-20.8 0-41.399-2.28-61.252-6.744l0.323-1.571c-21.309 5.218-43.465 8.315-66.332 8.315-155.664 0-282.302-127.732-282.302-284.713 0-156.937 126.651-284.67 282.302-284.67 21.776 0 42.907 2.765 63.276 7.453 20.836-4.891 42.332-7.453 63.986-7.453 19.516 0 38.629 2.040 57.055 5.833 18.066-3.59 36.506-5.833 55.016-5.833 155.666 0 282.289 127.733 282.289 284.67 0 156.981-126.652 284.713-282.289 284.713zM140.721 447.979c0 140.272 111.773 254.433 249.235 254.433 137.421 0 249.193-114.161 249.193-254.433 0-140.293-111.772-254.384-249.193-254.384-137.462 0-249.235 114.092-249.235 254.384zM517.017 193.953c92.705 45.281 157.086 141.925 157.086 254.011 0 112.122-64.41 208.83-157.169 254.055 2.1 0.043 4.203 0.379 6.313 0.379 136.889 0 248.239-114.162 248.239-254.434 0-121.043-83.026-222.482-193.761-247.999-1.705-0.441-3.937-1.072-3.937-1.072-16.353-3.466-33.226-5.298-50.541-5.298-2.11 0-4.169 0.274-6.23 0.358zM649.175 193.739c90.507 44.415 148.104 139.397 153.358 249.154 6.357 132.817-83.049 226.419-173.556 259.405 148.892 8.704 254.294-124.696 254.294-259.405s-104.277-244.548-234.096-249.154zM283.127 458.946h172.931c8.426 0 15.259-6.831 15.259-15.258v-1.549c0-8.426-6.832-15.258-15.259-15.258h-172.931c-8.426 0-15.258 6.831-15.258 15.258v1.549c0 8.426 6.831 15.258 15.258 15.258zM369.593 544.638c8.87 0 16.061-7.192 16.061-16.063v-171.323c0-8.871-7.192-16.063-16.061-16.063-8.872 0-16.063 7.192-16.063 16.063v171.323c0 8.871 7.191 16.063 16.063 16.063z" />
<glyph unicode="&#xe90d;" glyph-name="ic_titles_registration" d="M687.928 107.446h-383.069c-29.087 0-52.803 23.875-52.803 53.161v543.746c0 29.326 23.716 53.201 52.803 53.201h232.579c8.993 0 16.314-7.322 16.314-16.314s-7.322-16.314-16.314-16.314h-232.579c-11.142 0-20.174-9.232-20.174-20.572v-543.746c0-11.34 9.033-20.532 20.174-20.532h383.069c11.142 0 20.174 9.192 20.174 20.532v350.241c0 8.993 7.322 16.314 16.314 16.314s16.314-7.322 16.314-16.314v-350.241c0-29.286-23.716-53.161-52.803-53.161zM445.588 506.781c-1.964-1.963-3.369-4.413-4.064-7.101l-21.211-81.7c-1.387-5.347 0.158-11.029 4.064-14.937 2.96-2.959 6.936-4.565 11.017-4.565 1.307 0 2.62 0.164 3.917 0.499l81.692 21.215c2.689 0.7 5.14 2.104 7.101 4.064l296.908 296.932c6.087 6.086 6.087 15.953 0.001 22.037l-60.476 60.489c-2.925 2.924-6.886 4.566-11.020 4.566-4.132 0-8.095-1.642-11.017-4.566l-49.751-49.754c-0.003-0.004-0.019-0.020-0.019-0.020l-247.142-247.159zM509.069 449.297l-51.925-13.486 13.481 51.931 233.132 233.149 38.441-38.447-233.128-233.147zM753.518 770.658l38.442-38.447-27.725-27.727-38.442 38.446 27.725 27.728z" />
<glyph unicode="&#xe90e;" glyph-name="ic_titles_search" d="M571.598 675.941c-38.402 38.402-89.461 59.552-143.769 59.552s-105.368-21.151-143.77-59.552c-38.402-38.403-59.551-89.464-59.551-143.773 0-54.31 21.15-105.368 59.551-143.77 38.402-38.403 89.461-59.552 143.77-59.552s105.367 21.15 143.769 59.552c38.402 38.402 59.551 89.461 59.551 143.77 0 54.312-21.15 105.37-59.551 143.773zM552.46 407.537c-33.29-33.29-77.553-51.625-124.631-51.625-47.079 0-91.342 18.333-124.632 51.625-68.721 68.722-68.721 180.544 0 249.265 33.29 33.291 77.553 51.624 124.632 51.624 47.078 0 91.341-18.333 124.631-51.624 68.721-68.721 68.721-180.543 0-249.265zM510.128 667.732c-6.385 3.883-14.711 1.855-18.594-4.53s-1.855-14.712 4.531-18.595c8.941-5.436 17.263-11.984 24.738-19.459 2.642-2.643 6.106-3.964 9.568-3.964 3.464 0 6.928 1.321 9.569 3.964 5.286 5.285 5.286 13.853 0 19.138-8.999 9-19.029 16.89-29.813 23.447zM325.283 621.183c3.464 0 6.927 1.321 9.568 3.964 29.575 29.575 71.942 43.382 113.325 36.937 7.389-1.151 14.303 3.905 15.455 11.29 1.149 7.386-3.905 14.305-11.288 15.455-49.894 7.768-100.969-8.882-136.63-44.544-5.285-5.285-5.285-13.853 0-19.138 2.642-2.643 6.107-3.964 9.569-3.964zM358.356 420.495c-8.468 5.28-16.375 11.57-23.504 18.699-5.285 5.286-13.854 5.286-19.138 0-5.285-5.285-5.285-13.852 0-19.138 8.582-8.581 18.112-16.163 28.324-22.528 2.227-1.389 4.702-2.050 7.145-2.050 4.516 0 8.933 2.261 11.498 6.375 3.954 6.338 2.018 14.685-4.326 18.641zM520.805 439.193c-28.671-28.672-68.24-42.375-108.563-37.592-7.423 0.885-14.155-4.423-15.033-11.844-0.88-7.422 4.423-14.152 11.844-15.032 6.37-0.757 12.716-1.127 19.025-1.127 41.85 0 81.818 16.415 111.864 46.458 5.285 5.286 5.285 13.855 0 19.141-5.284 5.281-13.853 5.281-19.138-0.003zM838.555 200.891l-163.785 163.785c-5.284 5.285-13.854 5.285-19.137 0l-6.552-6.552-16.072 16.073c78.235 101.467 70.875 248.106-22.085 341.070-100.959 100.96-265.231 100.96-366.188 0-100.96-100.959-100.96-265.233 0-366.192 50.478-50.479 116.788-75.72 183.095-75.72 55.801 0 111.603 17.881 157.971 53.634l16.073-16.072-6.552-6.552c-2.539-2.537-3.964-5.98-3.964-9.569s1.425-7.031 3.964-9.569l163.783-163.785c10.954-10.953 25.338-16.427 39.726-16.427 14.385 0 28.774 5.476 39.726 16.427v0c21.902 21.903 21.902 57.545-0.003 79.451zM263.871 368.212c-43.794 43.796-67.913 102.024-67.913 163.957s24.12 120.163 67.913 163.956c43.796 43.794 102.022 67.915 163.955 67.915s120.164-24.121 163.958-67.915c43.795-43.795 67.913-102.022 67.913-163.956s-24.118-120.163-67.913-163.957c-43.796-43.793-102.022-67.914-163.955-67.914s-120.162 24.118-163.958 67.914zM606.399 344.665c1.521 1.449 3.029 2.916 4.521 4.409 1.493 1.495 2.962 3.003 4.411 4.522l14.611-14.611-8.933-8.932-14.61 14.611zM819.417 140.577v0c-11.354-11.352-29.822-11.351-41.174 0l-154.215 154.217 41.173 41.173 154.216-154.217c11.351-11.352 11.351-29.821 0-41.173z" />
<glyph unicode="&#xe90f;" glyph-name="ic_titles_signin" d="M277.612 423.508h334.264l-86.198-87.951c-6.544-6.548-6.544-17.979-0.009-24.537 3.276-3.281 7.557-5.321 11.856-5.321 4.289 0 8.569 1.436 11.846 4.718l107.361 107.45c3.141 3.148 4.908 7.37 4.908 11.818 0 4.45-1.767 8.697-4.908 11.845l-5.094 5.096c-1.157 1.678-2.614 3.139-4.298 4.289l-97.961 98.151c-6.542 6.556-17.158 6.556-23.692 0-6.543-6.556-6.543-15.579 0-22.144l71.312-69.838h-319.386c-9.249 0-16.755-7.52-16.755-16.787s7.506-16.788 16.755-16.788zM662.711 101.276h-250.008c-61 0-105.287 38.080-105.287 90.525v114.439c0 8.993 7.322 16.314 16.314 16.314s16.314-7.322 16.314-16.314v-114.439c0-38.001 36.528-57.896 72.659-57.896h250.008c40.547 0 67.804 23.238 67.804 57.896v478.249c0 35.613-28.968 75.404-67.804 75.404h-250.008c-36.687 0-72.659-37.324-72.659-75.404v-113.842c0-8.993-7.322-16.314-16.314-16.314s-16.314 7.322-16.314 16.314v113.842c0 56.543 50.177 108.033 105.287 108.033h250.008c53.479 0 100.433-50.495 100.433-108.033v-478.249c0-53.28-41.303-90.525-100.433-90.525z" />
<glyph unicode="&#xe910;" glyph-name="ic_titles_transactions" d="M774.577 659.574l-133.333 131.762c-2.129 2.107-5.020 3.29-8.034 3.29h-351.509c-19.633 0-35.605-15.785-35.605-35.187v-622.879c0-19.401 15.973-35.186 35.605-35.186h460.598c19.633 0 35.605 15.785 35.605 35.186v515.073c0 2.978-1.196 5.835-3.328 7.941zM644.573 744.607l83.156-81.744h-70.277c-7.102 0-12.879 5.709-12.879 12.727v69.017zM735.768 131.912h-447.77c-7.102 0-12.879 5.71-12.879 12.727v607.544c0 7.018 5.777 12.727 12.879 12.727h327.891v-95.202c0-19.402 15.972-35.187 35.605-35.187h97.153v-489.881c0-7.017-5.777-12.727-12.879-12.727zM366.547 483.186h-24.242c-12.95 0-23.485-10.411-23.485-23.209v-23.957c0-12.797 10.535-23.209 23.485-23.209h24.242c12.95 0 23.485 10.411 23.485 23.209v23.957c0 12.797-10.535 23.209-23.485 23.209zM367.305 436.021c0-0.413-0.339-0.748-0.758-0.748h-24.242c-0.418 0-0.757 0.335-0.757 0.748v23.957c0 0.414 0.339 0.749 0.757 0.749h24.242c0.419 0 0.758-0.335 0.758-0.749v-23.957zM427.153 460.727h109.088c6.277 0 11.365 5.028 11.365 11.23s-5.088 11.23-11.365 11.23h-109.088c-6.276 0-11.364-5.028-11.364-11.23s5.088-11.23 11.364-11.23zM427.153 412.813h157.572c6.276 0 11.364 5.028 11.364 11.231s-5.088 11.23-11.364 11.23h-157.572c-6.276 0-11.364-5.028-11.364-11.23s5.088-11.231 11.364-11.231zM366.547 590.993h-24.242c-12.95 0-23.485-10.411-23.485-23.209v-23.957c0-12.797 10.535-23.209 23.485-23.209h24.242c12.95 0 23.485 10.411 23.485 23.209v23.957c0 12.797-10.535 23.209-23.485 23.209zM367.305 543.828c0-0.414-0.339-0.749-0.758-0.749h-24.242c-0.418 0-0.757 0.335-0.757 0.749v23.957c0 0.413 0.339 0.748 0.757 0.748h24.242c0.419 0 0.758-0.335 0.758-0.748v-23.957zM427.153 568.533h157.572c6.276 0 11.364 5.028 11.364 11.23s-5.088 11.231-11.364 11.231h-157.572c-6.276 0-11.364-5.028-11.364-11.231s5.088-11.23 11.364-11.23zM693.816 543.079h-266.663c-6.276 0-11.364-5.028-11.364-11.23s5.088-11.23 11.364-11.23h266.663c6.275 0 11.364 5.028 11.364 11.23s-5.089 11.23-11.364 11.23zM366.547 698.799h-24.242c-12.95 0-23.485-10.411-23.485-23.209v-23.957c0-12.797 10.535-23.209 23.485-23.209h24.242c12.95 0 23.485 10.411 23.485 23.209v23.957c0 12.797-10.535 23.209-23.485 23.209zM367.305 651.633c0-0.413-0.339-0.749-0.758-0.749h-24.242c-0.418 0-0.757 0.336-0.757 0.749v23.957c0 0.413 0.339 0.749 0.757 0.749h24.242c0.419 0 0.758-0.336 0.758-0.749v-23.957zM427.153 676.339h109.088c6.277 0 11.365 5.028 11.365 11.229 0 6.203-5.088 11.231-11.365 11.231h-109.088c-6.276 0-11.364-5.028-11.364-11.231 0-6.201 5.088-11.229 11.364-11.229zM427.153 628.425h157.572c6.276 0 11.364 5.028 11.364 11.23s-5.088 11.23-11.364 11.23h-157.572c-6.276 0-11.364-5.028-11.364-11.23s5.088-11.23 11.364-11.23zM366.547 267.575h-24.242c-12.95 0-23.485-10.411-23.485-23.209v-23.957c0-12.797 10.535-23.209 23.485-23.209h24.242c12.95 0 23.485 10.411 23.485 23.209v23.957c0 12.797-10.535 23.209-23.485 23.209zM367.305 220.41c0-0.414-0.339-0.749-0.758-0.749h-24.242c-0.418 0-0.757 0.335-0.757 0.749v23.957c0 0.413 0.339 0.748 0.757 0.748h24.242c0.419 0 0.758-0.335 0.758-0.748v-23.957zM427.153 245.115h109.088c6.277 0 11.365 5.028 11.365 11.23s-5.088 11.231-11.365 11.231h-109.088c-6.276 0-11.364-5.028-11.364-11.231s5.088-11.23 11.364-11.23zM584.726 219.661h-157.572c-6.276 0-11.364-5.027-11.364-11.23s5.088-11.23 11.364-11.23h157.572c6.276 0 11.364 5.028 11.364 11.23s-5.088 11.23-11.364 11.23zM366.547 375.381h-24.242c-12.95 0-23.485-10.41-23.485-23.208v-23.958c0-12.797 10.535-23.208 23.485-23.208h24.242c12.95 0 23.485 10.41 23.485 23.208v23.958c0 12.797-10.535 23.208-23.485 23.208zM367.305 328.216c0-0.413-0.339-0.749-0.758-0.749h-24.242c-0.418 0-0.757 0.336-0.757 0.749v23.958c0 0.412 0.339 0.748 0.757 0.748h24.242c0.419 0 0.758-0.336 0.758-0.748v-23.958zM427.153 352.921h157.572c6.276 0 11.364 5.028 11.364 11.23s-5.088 11.23-11.364 11.23h-157.572c-6.276 0-11.364-5.028-11.364-11.23s5.088-11.23 11.364-11.23zM693.816 327.466h-266.663c-6.276 0-11.364-5.028-11.364-11.23s5.088-11.229 11.364-11.229h266.663c6.275 0 11.364 5.028 11.364 11.229s-5.089 11.23-11.364 11.23z" />
<glyph unicode="&#xe911;" glyph-name="ic_titles_uploads" d="M726.326 553.070c-7.386 112.994-100.828 202.649-214.627 202.649-113.827 0-207.286-89.692-214.633-202.729-101.768-12.92-179.477-100.422-179.477-205.414 0-114.303 92.141-207.297 205.399-207.297h312.366c8.884 0 16.089 7.272 16.089 16.238s-7.205 16.239-16.089 16.239h-312.366c-95.514 0.003-173.22 78.425-173.22 174.819 0 92.763 71.957 169.335 163.814 174.322 8.537 0.463 15.225 7.587 15.225 16.215 0 0.322-0.008 0.639-0.026 0.961 0.241 101.587 82.203 184.168 182.917 184.168 100.73 0 182.706-82.595 182.917-184.207-0.013-0.314-0.023-0.644-0.023-0.89 0-8.649 6.717-15.781 15.274-16.218 92.168-4.711 164.362-81.295 164.362-174.348 0-52.846-23.323-102.306-63.994-135.694-6.895-5.659-7.935-15.887-2.326-22.843 5.606-6.958 15.741-8.009 22.632-2.349 48.217 39.584 75.869 98.224 75.869 160.887 0 105.315-77.972 192.85-180.084 205.488zM495.609 464.24v-207.069c0-8.967 7.206-16.24 16.090-16.24s16.090 7.273 16.090 16.24v207.069c0 8.966-7.205 16.238-16.090 16.238s-16.090-7.272-16.090-16.238zM603.726 434.128c4.119 0 8.234 1.587 11.379 4.755 6.283 6.342 6.283 16.624 0 22.965l-92.026 92.875c-6.283 6.342-16.474 6.342-22.754 0l-92.026-92.875c-6.282-6.341-6.282-16.623 0-22.965 6.283-6.34 16.475-6.34 22.754 0l80.647 81.394 80.648-81.394c3.143-3.168 7.261-4.755 11.378-4.755z" />
<glyph unicode="&#xe912;" glyph-name="ic_titles_users" d="M736.681 797.628c38.547 0 69.908-31.336 69.908-69.854s-31.361-69.855-69.908-69.855c-38.549 0-69.91 31.337-69.91 69.855s31.361 69.854 69.91 69.854zM736.681 825.501c-53.955 0-97.783-43.803-97.783-97.727 0-53.925 43.828-97.729 97.783-97.729 53.954 0 97.781 43.803 97.781 97.729 0 53.924-43.827 97.727-97.781 97.727v0zM512.003 797.628c38.547 0 69.908-31.336 69.908-69.854s-31.361-69.855-69.908-69.855c-38.549 0-69.91 31.337-69.91 69.855s31.361 69.854 69.91 69.854zM512.003 825.501c-53.955 0-97.784-43.803-97.784-97.727 0-53.925 43.829-97.729 97.784-97.729s97.782 43.803 97.782 97.729c0 53.924-43.828 97.727-97.782 97.727v0zM580.992 560.162c33.723 0 61.159-27.414 61.159-61.11v-113.662c0-22.418-12.319-43.004-32.149-53.722-9.007-4.869-14.619-14.283-14.619-24.521v-149.080c0-23.69-19.292-42.964-43.004-42.964h-80.754c-23.705 0-43.062 19.32-43.151 42.964v149.080c0 10.238-5.613 19.652-14.619 24.52-19.83 10.719-32.148 31.304-32.148 53.722v113.662c0 33.696 27.436 61.11 61.159 61.11h138.126zM580.992 588.035h-138.126c-49.091 0-89.033-39.92-89.033-88.983v-113.662c0-32.807 18.299-62.855 46.768-78.243v-149.080c0.146-39.047 31.955-70.838 71.024-70.838h80.754c39.071 0 70.878 31.79 70.878 70.838v149.080c28.468 15.388 46.768 45.436 46.768 78.243v113.662c0 49.064-39.941 88.983-89.032 88.983v0zM287.324 797.628c38.548 0 69.908-31.336 69.908-69.854s-31.361-69.855-69.908-69.855c-38.549 0-69.91 31.337-69.91 69.855s31.361 69.854 69.91 69.854zM287.324 825.501c-53.955 0-97.784-43.803-97.784-97.727 0-53.925 43.829-97.729 97.784-97.729 53.795 0 97.782 43.803 97.782 97.729 0 53.924-43.829 97.727-97.782 97.727v0zM354.845 70.896h-80.736c-48.068 0-87.222 39.154-87.222 87.302v139.906c-29.048 19.458-46.755 52.126-46.755 87.441v113.643c0 56.842 46.237 101.368 105.208 101.368h69.117c8.993 0 16.314-7.302 16.314-16.294s-7.322-16.294-16.314-16.294h-69.117c-41.383 0-72.579-29.565-72.579-68.779v-113.643c0-26.68 14.643-51.151 38.199-63.924 5.252-2.825 8.555-8.356 8.555-14.325v-149.097c0-30.162 24.472-54.673 54.593-54.673h80.736c8.993 0 16.314-7.322 16.314-16.314s-7.322-16.314-16.314-16.314zM749.891 70.499h-80.736c-8.993 0-16.314 7.322-16.314 16.314s7.322 16.314 16.314 16.314h80.736c30.122 0 54.593 24.432 54.593 54.514v149.495c0 5.969 3.303 11.5 8.555 14.325 23.556 12.773 38.199 37.244 38.199 63.924v113.663c0 39.99-32.589 72.539-72.698 72.539h-76.399c-8.993 0-16.314 7.302-16.314 16.294s7.322 16.294 16.314 16.294h76.399c58.055 0 105.327-47.152 105.327-105.128v-113.663c0-35.315-17.707-67.983-46.755-87.441v-140.303c0-48.028-39.154-87.143-87.222-87.143z" />
<glyph unicode="&#xe913;" glyph-name="ic_titles_view_profile" d="M524.755 918.144c44.987 0 81.454-36.357 81.454-81.207s-36.467-81.207-81.454-81.207c-44.986 0-81.455 36.357-81.455 81.207s36.469 81.207 81.455 81.207zM584.774 725.813c124.129 0 131.102-102.577 131.102-102.577l11.062-252.169c0 0-2.769-38.467-37.524-38.467-34.757 0-35.357 38.467-35.357 38.467s0 216.891 0 224.097c0 13.435-8.783 20.663-17.548 20.663-8.728 0-17.438-7.168-17.438-22.51 0-30.749 11.063-568.447 11.063-568.447s2.333-47.015-42.871-47.015c-45.206 0-47.159 47.015-47.159 47.015s0 279.894 0 310.478c0 43.143-35.119 67.431-66.929 67.431h-14.21c0 0 0.24 22.45-14.976 27.484 0 0 0 132.445 0 163.054 0 17.896-8.94 26.011-17.782 26.011-8.65 0-17.205-7.765-17.205-21.736 0-7.207 0-162.415 0-162.415h-72.881v188.059c0 0-4.089 102.577 120.039 102.577 42.328 0 42.867 0 42.872 0 0 0-0.979-15.010 4.286-25.644s-28.795-140.582 17.149-166.688c45.942 26.106 11.883 156.053 17.148 166.688s4.288 25.644 4.288 25.644v0c0 0 0.29 0 42.871 0zM499.033 725.813v0 0zM398.285 409.534c15.391 0 27.866-12.439 27.866-27.781v-6.412h38.585c23.678 0 42.872-19.136 42.872-42.74v-17.095h-111.563c-3.914 5.162-10.062 8.548-17.051 8.548h-12.862c-6.989 0-13.139-3.386-17.050-8.548h-115.85v17.095c0 23.605 19.195 42.74 42.872 42.74h42.872v6.412c0 15.343 12.475 27.781 27.866 27.781h51.445zM507.607 289.861v-72.659c0-23.605-19.195-42.741-42.872-42.741h-188.633c-23.676 0-42.872 19.136-42.872 42.741v72.659h111.465v-17.097c0-11.802 9.598-21.37 21.435-21.37h12.862c11.838 0 21.435 9.568 21.435 21.37v17.097h107.179zM511.894 163.347c0-72.629 0-138.476 0-138.476s-1.954-47.015-47.158-47.015c-45.206 0-42.872 47.015-42.872 47.015v119.672h51.311c15.445 0 29.265 7.299 38.719 18.804zM524.755 946.667c-60.641 0-109.977-49.224-109.977-109.729 0-32.919 14.605-62.5 37.688-82.629-47-0.69-83.876-14.625-109.649-41.446-36.222-37.694-35.407-85.442-35.195-90.762l-0.023-186.923c0-3.901 0.783-7.619 2.201-11.005-6.35-5.535-11.452-12.468-14.818-20.309h-18.88c-39.366 0-71.394-31.968-71.394-71.263v-17.095c0-4.611 1.095-8.968 3.038-12.822-1.943-3.854-3.038-8.211-3.038-12.822v-72.659c0-39.295 32.027-71.263 71.394-71.263h117.273c-0.022-0.463-0.034-0.927-0.034-1.396v-119.672c-0.136-2.033-1.028-32.9 20.044-55.044 8.896-9.349 25.027-20.493 51.35-20.493 29.75 0 49.489 13.886 61.331 31.352 11.861-17.576 31.56-31.352 61.197-31.352 26.322 0 42.452 11.144 51.349 20.492 21.072 22.144 20.18 53.012 20.009 56.459-0.042 2.356-3.001 146.411-5.843 288.885 9.372-6.768 21.444-11.090 36.636-11.090 44.973 0 64.094 38.837 65.972 64.942 0.079 1.097 0.095 2.198 0.046 3.298l-11.062 252.169c-2.97 43.806-37.82 124.109-147.632 129.557 23.258 20.134 37.993 49.832 37.993 82.894 0 60.505-49.335 109.729-109.976 109.729v0zM499.033 697.291v0z" />
<glyph unicode="&#xe914;" glyph-name="ic_user" d="M697.6 460.8c-51.2-57.6-115.2-89.6-185.6-89.6-76.8 0-140.8 38.4-179.2 96-96-57.6-160-166.4-160-294.4 0-38.4 19.2-89.6 115.2-121.6 57.6-19.2 140.8-32 224-32s166.4 12.8 224 32c96 38.4 115.2 89.6 115.2 121.6 6.4 121.6-57.6 230.4-153.6 288zM512 428.8c108.8 0 192 102.4 192 230.4s-83.2 224-192 224c-108.8 0-192-102.4-192-230.4s83.2-224 192-224z" />
<glyph unicode="&#xe915;" glyph-name="ic_titles_search_training_record" d="M821.17 658.417v89.286c0 9.733-7.949 17.623-17.754 17.623h-628.473c-9.802 0-17.754-7.89-17.754-17.623v-502.576c0-9.734 7.951-17.624 17.754-17.624h71.014v-40.907c0-27.209 22.302-49.348 49.712-49.348h518.4c27.409 0 49.711 22.139 49.711 49.348v422.985c0 24.816-18.55 45.404-42.61 48.837zM192.697 262.751v467.327h592.968v-71.149h-170.435c-27.409 0-49.709-22.138-49.709-49.348 0-7.775-6.371-14.1-14.202-14.1h-255.649c-27.41 0-49.712-22.138-49.712-49.349v-283.381h-53.26zM828.272 186.596c0-7.773-6.371-14.098-14.203-14.098h-518.4c-7.832 0-14.204 6.325-14.204 14.098v359.536c0 7.775 6.372 14.101 14.204 14.101h255.649c27.41 0 49.709 22.137 49.709 49.348 0 7.773 6.372 14.1 14.202 14.1h198.839c7.832 0 14.203-6.326 14.203-14.1v-422.985zM442.469 661.921h-163.333c-9.802 0-17.753-7.89-17.753-17.624s7.95-17.624 17.753-17.624h163.333c9.804 0 17.754 7.89 17.754 17.624s-7.95 17.624-17.754 17.624zM686.083 273.852l-57.506 57.505c-0.306 0.305-0.664 0.519-0.983 0.804 11.316 17.164 17.92 37.711 17.92 59.805-0.001 60.107-48.726 108.832-108.829 108.832-60.105 0-108.829-48.725-108.829-108.829s48.723-108.83 108.828-108.83c22.096 0 42.641 6.604 59.805 17.92 0.286-0.318 0.497-0.677 0.803-0.982l57.508-57.508c8.638-8.638 22.644-8.638 31.284 0 8.638 8.639 8.638 22.644 0 31.283zM536.684 320.867c-39.271 0-71.103 31.833-71.103 71.102s31.833 71.102 71.103 71.102c39.266 0 71.101-31.834 71.101-71.102s-31.834-71.102-71.101-71.102z" />
<glyph unicode="&#xe916;" glyph-name="ic_titles_training_record" d="M831.199 660.806v91.732c0 10-8.167 18.106-18.24 18.106h-645.694c-10.071 0-18.24-8.106-18.24-18.106v-516.348c0-10.001 8.169-18.107 18.24-18.107h72.96v-42.028c0-27.954 22.913-50.7 51.074-50.7h532.605c28.16 0 51.073 22.746 51.073 50.7v434.576c0 25.496-19.058 46.648-43.777 50.175zM185.506 254.298v480.133h609.215v-73.099h-175.105c-28.16 0-51.072-22.745-51.072-50.7 0-7.988-6.545-14.486-14.591-14.486h-262.655c-28.161 0-51.074-22.745-51.074-50.701v-291.146h-54.718zM838.495 176.056c0-7.986-6.545-14.485-14.592-14.485h-532.605c-8.047 0-14.594 6.498-14.594 14.485v369.388c0 7.988 6.547 14.487 14.594 14.487h262.655c28.161 0 51.072 22.743 51.072 50.7 0 7.986 6.547 14.486 14.591 14.486h204.288c8.047 0 14.592-6.5 14.592-14.486v-434.576zM510.176 505.609h-167.806c-10.073 0-18.24-8.106-18.24-18.107s8.167-18.107 18.24-18.107h167.806c10.073 0 18.24 8.106 18.24 18.107s-8.167 18.107-18.24 18.107zM510.176 444.044h-167.806c-10.073 0-18.24-8.106-18.24-18.107s8.167-18.107 18.24-18.107h167.806c10.073 0 18.24 8.106 18.24 18.107s-8.167 18.107-18.24 18.107z" />
<glyph unicode="&#xe917;" glyph-name="ic_titles_training_reg" d="M440.157 157.201c-154.522 29.902-266.678 165.975-266.678 323.559 0 181.729 147.913 329.573 329.731 329.573s329.731-147.844 329.731-329.573c0-8.402 6.817-15.218 15.218-15.218s15.218 6.817 15.218 15.218c0 198.513-161.566 360.010-360.168 360.010s-360.168-161.497-360.168-360.010c0-172.128 122.52-320.775 291.329-353.441 0.981-0.188 1.952-0.277 2.913-0.277 7.144 0 13.514 5.053 14.921 12.325 1.595 8.253-3.795 16.239-12.048 17.834zM853.242 420.844h-334.827c-8.423 0-15.207-6.781-15.207-15.2v-291.406c0-8.419 6.784-15.199 15.207-15.199h149.3v-28.388c0-12.294 14.163-19.299 23.927-11.773l31.828 24.439 31.829-24.439c9.763-7.526 23.927-0.521 23.927 11.773v28.388h74.016c8.423 0 15.207 6.78 15.207 15.199v291.406c0 8.42-6.784 15.2-15.207 15.2zM748.59 102.614l-25.119 19.299-25.119-19.299v63.557c7.825-2.756 16.323-4.322 25.119-4.322s17.293 1.49 25.119 4.322v-63.557zM723.471 192.249c-23.927 0-43.382 18.851-43.382 42.024s19.455 42.023 43.382 42.023c23.927 0 43.381-18.85 43.381-42.023s-19.454-42.024-43.381-42.024zM779.227 129.437v57.447c11.254 12.741 18.037 29.282 18.037 47.389 0 39.937-33.095 72.348-73.793 72.348s-73.793-32.486-73.793-72.348c0-18.107 6.782-34.648 18.038-47.389v-57.447h-134.095v261.007h304.341v-261.007h-58.735zM763.945 351.475h-156.308c-8.423 0-15.206-6.78-15.206-15.2 0-8.345 6.858-15.199 15.206-15.199h156.308c8.423 0 15.206 6.78 15.206 15.199s-6.783 15.2-15.206 15.2zM376.182 493.432c16.952 7.322 36.877 10.879 60.893 10.879h141.463c50.926 0 88.021-16.635 110.244-49.44 4.726-6.955 14.188-8.739 21.143-4.062 6.955 4.716 8.768 14.178 4.062 21.143-19.419 28.643-58.674 62.796-135.449 62.796h-27.339c38.685 15.46 66.128 53.295 66.128 97.503 0 57.901-47.013 105.003-104.805 105.003s-104.815-47.102-104.815-105.003c0-44.208 27.45-82.043 66.136-97.503h-36.77c-28.257 0-52.115-4.379-72.961-13.376-32.28-13.93-56.187-39.978-67.323-73.328-10.116-30.268-13.732-75.101 0.961-107.044 9.026-19.608 27.217-37.699 47.508-47.23 20.687-9.66 32.28-14.832 40.196-14.832 4.706 0 8.105 1.823 11.335 5.618 2.348 2.754 3.636 6.252 3.636 9.868v83.334c0 8.402-6.817 15.218-15.218 15.218s-15.218-6.817-15.218-15.218v-61.755c-3.983 1.744-8.124 3.606-11.82 5.33-13.841 6.5-26.702 19.211-32.765 32.389-10.661 23.174-7.946 60.14 0.258 84.682 8.352 25.027 26.295 44.565 50.52 55.028zM438.146 632.25c0 41.117 33.369 74.566 74.378 74.566s74.368-33.449 74.368-74.566-33.359-74.566-74.368-74.566-74.378 33.449-74.378 74.566z" />
<glyph unicode="&#xe918;" glyph-name="ic_titles_company_reg" d="M894.905 350.484c-3.357 0.894-6.848 0.424-9.853-1.324-2.999-1.743-5.144-4.547-6.032-7.893-17.282-65.235-56.778-123.565-114.226-168.686-68.837-54.047-157.8-83.812-250.51-83.812-89.365 0-175.88 27.889-243.606 78.534-61.431 45.925-104.753 108.903-121.996 177.333-1.743 6.909-8.82 11.149-15.763 9.417-6.943-1.754-11.171-8.825-9.417-15.768 18.695-74.2 65.447-142.305 131.625-191.777 72.194-53.985 164.229-83.717 259.157-83.717 98.491 0 193.151 31.738 266.541 89.37 61.917 48.623 104.552 111.713 123.292 182.449 0.888 3.351 0.419 6.854-1.324 9.859-1.743 2.994-4.547 5.133-7.887 6.016zM658.443 343.268c-7.077-25.806-23.326-48.947-46.986-66.905-28.693-21.767-65.855-33.754-104.641-33.754-37.396 0-73.535 11.238-101.77 31.643-25.325 18.299-43.16 43.277-50.22 70.34-1.799 6.909-8.887 11.104-15.835 9.283-3.363-0.877-6.183-3.005-7.932-5.999-1.754-2.994-2.234-6.485-1.352-9.836 8.568-32.888 29.922-63.017 60.124-84.84 32.642-23.583 74.188-36.569 116.985-36.569 44.417 0 87.153 13.869 120.337 39.049 28.263 21.449 47.746 49.36 56.342 80.712 1.894 6.904-2.184 14.065-9.105 15.969-6.904 1.821-14.042-2.234-15.947-9.093zM913.578 509.904c-2.117 31.129-27.118 89.761-105.965 95.241 16.466 15.4 25.772 36.659 25.772 59.364 0 44.97-36.709 81.556-81.83 81.556s-81.829-36.586-81.829-81.556c0-25.074 11.992-49.639 31.296-64.101 14.439-10.819 24.901-16.723 28.799-18.796-0.028-3.659 0.296-11.842 3.452-18.215 0.631-1.849-0.536-11.238-1.659-20.321-4.072-32.849-10.881-87.834 15.394-102.742l1.413-0.804 1.413 0.804c26.269 14.908 19.46 69.887 15.388 102.742-1.123 9.082-2.29 18.472-1.692 20.242 2.888 5.831 3.43 13.109 3.485 17.148h28.459c86.979 0 92.867-69.323 93.068-72.2l3.368-76.59h-42.881v57.979c0 1.38-0.637 4.597-6.546 4.597-7.457 0-22.186-4.798-22.806-4.999l-2.011-0.659 1.112-56.918h-129.793l-5.871 133.597c-2.335 34.318-30.185 98.329-118.181 102.133 19.522 16.439 30.956 40.68 30.956 66.346 0 47.877-39.049 86.829-87.052 86.829s-87.052-38.951-87.052-86.829c0-25.571 11.356-49.734 30.754-66.173-37.871-0.324-67.525-11.372-88.164-32.855-27.844-28.973-27.962-66.983-27.883-71.167v-131.882h-133.044l1.106 56.918-2.011 0.659c-0.62 0.201-15.344 4.999-22.801 4.999-5.91 0-6.546-3.217-6.546-4.597v-57.979h-42.881l3.363 76.518c0.201 2.955 5.926 72.272 93.073 72.272h28.459c0.050-4.033 0.586-11.294 3.452-17.070 0.631-1.849-0.536-11.238-1.659-20.321-4.072-32.855-10.881-87.834 15.388-102.742l1.413-0.804 1.413 0.804c26.275 14.908 19.466 69.893 15.394 102.742-1.123 9.082-2.29 18.472-1.692 20.248 3.184 6.429 3.513 14.623 3.48 18.287 3.904 2.072 14.366 7.976 28.805 18.796 19.304 14.461 31.296 39.027 31.296 64.101 0 44.97-36.709 81.556-81.829 81.556s-81.829-36.586-81.829-81.556c0-22.706 9.306-43.964 25.767-59.364-78.841-5.479-103.842-64.129-105.993-95.782l-4.513-102.776h814.022l-4.547 103.317zM808.3 664.509c0-31.134-25.454-56.465-56.744-56.465-31.285 0-56.739 25.331-56.739 56.465s25.454 56.465 56.739 56.465c31.291 0 56.744-25.331 56.744-56.465zM607.737 548.115c-8.071 0-24.052-5.211-24.733-5.429l-2.005-0.659 2.15-110.35h-135.725v110.361l-1.966 0.648c-0.681 0.218-16.662 5.429-24.728 5.429-6.2 0-6.87-3.318-6.87-4.748v-111.69h-52.281v132.201c-0.011 0.307-0.899 30.844 20.941 53.522 16.042 16.656 40.172 25.102 71.731 25.102h31.201c0.039-4.318 0.575-12.367 3.742-18.751 0.715-1.972-0.564-12.283-1.793-22.248-4.418-35.709-11.814-95.475 16.617-111.623l1.413-0.804 1.413 0.804c28.425 16.148 21.030 75.914 16.612 111.618-1.229 9.97-2.508 20.281-1.815 22.197 3.184 6.423 3.726 14.489 3.765 18.807h31.201c94.85 0 101.256-75.708 101.474-78.858l5.792-131.966h-49.271v111.69c0 1.43-0.67 4.748-6.865 4.748zM446.876 733.754c0 34.044 27.794 61.741 61.961 61.741s61.967-27.696 61.967-61.741c0-34.039-27.8-61.732-61.967-61.732s-61.961 27.694-61.961 61.732zM213.928 664.509c0 31.134 25.454 56.465 56.744 56.465 31.285 0 56.739-25.331 56.739-56.465s-25.454-56.465-56.739-56.465c-31.291 0-56.744 25.331-56.744 56.465z" />
<glyph unicode="&#xe919;" glyph-name="ic_titles_delegate_reg" d="M717.676 262.245c-16.036 8.328-34.274 15.832-54.218 22.306-1.217 0.651-3.401 1.835-6.279 3.428-24.259 13.474-43.62 26.245-53.46 35.236v34.313c46.035 27.134 77.061 74.036 87.59 132.395 27.365 8.677 49.34 34.081 49.34 57.402 0 23.759-17.003 40.117-45.643 44.124v10.489h50.347c1.602 0 2.902 1.302 2.902 2.906v11.507c0 12.309-11.446 71.932-41.852 75.559-19.603 56.821-62.416 101.818-117.897 123.915v19.107c0 1.605-1.301 2.906-2.903 2.906h-144.536c-1.602 0-2.901-1.302-2.901-2.906v-19.104c-55.559-22.125-98.394-67.127-117.955-123.925-30.371-3.693-41.797-63.262-41.797-75.552v-11.507c0-1.605 1.301-2.906 2.903-2.906h50.348v-10.489c-28.641-4.007-45.642-20.365-45.642-44.124 0-23.321 21.974-48.73 49.338-57.406 10.536-58.376 41.57-105.276 87.59-132.392v-34.313c-9.832-8.986-29.186-21.75-53.436-35.22-2.93-1.623-5.135-2.816-6.347-3.471-20.463-6.784-38.695-14.386-54.169-22.582-96.698-50.141-98.995-117.99-99.045-120.905l-0.004-50.052c0-0.774 0.306-1.511 0.851-2.055 0.544-0.546 1.282-0.851 2.052-0.851h600.966c1.603 0 2.902 1.301 2.902 2.906v49.924c-0.012 2.887-1.462 71.316-99.043 121.336zM329.862 178.256v61.992c9.718 4.718 20.535 9.229 32.231 13.436v-75.428h-32.231zM675.72 692.117h-87.215v92.324c39.134-18.687 70.584-51.977 87.215-92.324zM559.879 809.018v-116.901h-93.089v116.901h93.089zM350.891 692.117c16.603 40.329 48.079 73.623 87.274 92.328v-92.328h-87.274zM694.718 523.301c0.145 10.141 0.239 30.794 0.273 39.016 14.725-3.011 17.031-10.565 17.031-14.991 0-7.25-7.439-17.312-17.304-24.024zM717.498 630.761h-408.326c3.979 15.922 11.739 30.438 14.917 32.534h378.491c3.177-2.1 10.938-16.611 14.917-32.534zM331.95 523.304c-9.864 6.713-17.303 16.775-17.303 24.021 0 4.426 2.306 11.98 17.030 14.991 0.032-8.222 0.129-28.875 0.273-39.012zM360.29 601.938h306.088v-69.953c0-9.967-0.62-19.469-1.843-28.251-7.718-56.339-37.509-101.88-81.744-124.942-20.824-10.928-44.195-16.468-69.456-16.468-25.267 0-48.643 5.547-69.491 16.488-44.212 23.051-73.994 68.594-81.713 124.949 0 0.003-0.003 0.007-0.003 0.007-1.22 8.745-1.838 18.238-1.838 28.217v69.953zM513.335 264.477c35.042 0 62.386 19.745 76.58 32.739 13.392-10.876 31.995-22.253 46.034-30.295v-88.665h-245.23v88.661c14.034 8.042 32.636 19.42 46.035 30.295 14.197-12.99 41.545-32.735 76.582-32.735zM575.092 344.026v-21.186c-7.732-7.94-31.574-29.542-61.757-29.542-29.969 0-53.963 21.622-61.76 29.568v21.164c19.298-6.986 40.053-10.527 61.76-10.527 21.713 0 42.466 3.538 61.757 10.523zM664.576 178.256v75.504c11.493-4.071 22.31-8.525 32.231-13.27v-62.234h-32.231zM278.43 116.9h-39.855l-0.004 23.608c0.083 1.847 2.693 44.737 62.663 83.701v-46.763c-13.173-3.106-22.822-15.125-22.822-28.938v-30.681c0-0.306 0.005-0.613 0.018-0.927zM307.040 117.827v30.681c0 0.469 0.445 0.926 0.899 0.926h410.789c0.456 0 0.902-0.457 0.902-0.926v-30.681c0-0.47-0.446-0.927-0.902-0.927h-410.789c-0.454 0-0.899 0.457-0.899 0.927zM725.433 177.446v47.213c60.717-39.008 62.608-82.148 62.658-83.931v-23.828h-39.854c0.010 0.313 0.017 0.621 0.017 0.927v30.681c0 13.818-9.645 25.835-22.821 28.938z" />
<glyph unicode="&#xe91a;" glyph-name="ic_titles_reports" d="M728.163 762.757h-90.326c-5.807 15.061-20.422 25.078-36.829 25.078h-37.794c-12.258 15.722-31.324 25.078-51.215 25.078s-38.957-9.355-51.215-25.078h-37.792c-16.409 0-31.024-10.017-36.831-25.078h-90.323c-28.743 0-52.126-23.073-52.126-51.433v-576.807c0-28.358 23.384-51.43 52.126-51.43h432.326c28.742 0 52.125 23.072 52.125 51.43v576.807c0 28.36-23.384 51.433-52.125 51.433zM322.53 160.871v524.1h71.516c7.462-7.981 17.958-12.539 28.945-12.539h178.017c10.986 0 21.482 4.558 28.945 12.539h71.515v-524.1h-378.938zM480.268 767.059c6.733 11.411 18.595 18.225 31.731 18.225s24.997-6.812 31.732-18.223c2.494-4.229 7.12-6.856 12.075-6.856h45.202c6.314 0 11.453-5.053 11.453-11.263v-37.618c0-6.211-5.138-11.264-11.453-11.264h-178.017c-6.315 0-11.453 5.053-11.453 11.264v37.618c0 6.21 5.138 11.263 11.453 11.263h45.2c4.953 0 9.58 2.626 12.076 6.854zM271.668 711.324c0 13.126 10.842 23.804 24.169 23.804h87.745v-22.529h-75.032c-7.707 0-13.978-6.197-13.978-13.814v-551.725c0-7.618 6.271-13.816 13.978-13.816h406.897c7.708 0 13.976 6.198 13.976 13.816v551.725c0 7.617-6.268 13.814-13.976 13.814h-75.032v22.529h87.746c13.327 0 24.168-10.678 24.168-23.804v-576.807c0-13.124-10.841-23.802-24.168-23.802h-432.326c-13.327 0-24.169 10.678-24.169 23.802v576.807zM511.999 735.128c3.685 0 7.286 1.474 9.863 4.035 2.616 2.561 4.117 6.124 4.117 9.779 0 3.653-1.501 7.218-4.107 9.769-2.589 2.572-6.19 4.047-9.873 4.047s-7.284-1.475-9.863-4.038c-2.616-2.561-4.115-6.125-4.115-9.777 0-3.654 1.499-7.218 4.105-9.77 2.587-2.571 6.188-4.045 9.873-4.045zM651.87 587.206h-216.163c-7.708 0-13.978-6.197-13.978-13.814s6.27-13.815 13.978-13.815h216.163c7.708 0 13.979 6.197 13.979 13.815s-6.271 13.814-13.979 13.814zM651.87 461.815h-216.163c-7.708 0-13.978-6.197-13.978-13.814 0-7.618 6.27-13.814 13.978-13.814h216.163c7.708 0 13.979 6.196 13.979 13.814s-6.271 13.814-13.979 13.814zM435.706 308.794h38.147c7.708 0 13.978 6.196 13.978 13.814s-6.27 13.814-13.978 13.814h-38.147c-7.708 0-13.978-6.196-13.978-13.814s6.27-13.814 13.978-13.814zM651.87 524.511h-216.163c-7.708 0-13.978-6.196-13.978-13.814 0-7.617 6.27-13.815 13.978-13.815h216.163c7.708 0 13.979 6.198 13.979 13.815s-6.271 13.814-13.979 13.814zM486.568 399.119h-50.862c-7.708 0-13.978-6.199-13.978-13.816s6.27-13.814 13.978-13.814h50.862c7.709 0 13.98 6.196 13.98 13.814s-6.271 13.816-13.98 13.816zM486.568 273.725h-50.862c-7.708 0-13.978-6.196-13.978-13.814s6.27-13.814 13.978-13.814h50.862c7.709 0 13.98 6.196 13.98 13.814s-6.271 13.814-13.98 13.814zM384.844 587.206h-12.714c-7.708 0-13.979-6.197-13.979-13.814s6.271-13.815 13.979-13.815h12.714c7.708 0 13.979 6.197 13.979 13.815s-6.271 13.814-13.979 13.814zM384.844 461.815h-12.714c-7.708 0-13.979-6.197-13.979-13.814 0-7.618 6.271-13.814 13.979-13.814h12.714c7.708 0 13.979 6.196 13.979 13.814s-6.271 13.814-13.979 13.814zM384.844 336.422h-12.714c-7.708 0-13.979-6.196-13.979-13.814s6.271-13.814 13.979-13.814h12.714c7.708 0 13.979 6.196 13.979 13.814s-6.271 13.814-13.979 13.814zM384.844 524.511h-12.714c-7.708 0-13.979-6.196-13.979-13.814 0-7.617 6.271-13.815 13.979-13.815h12.714c7.708 0 13.979 6.198 13.979 13.815s-6.271 13.814-13.979 13.814zM384.844 399.119h-12.714c-7.708 0-13.979-6.199-13.979-13.816s6.271-13.814 13.979-13.814h12.714c7.708 0 13.979 6.196 13.979 13.814s-6.271 13.816-13.979 13.816zM384.844 273.725h-12.714c-7.708 0-13.979-6.196-13.979-13.814s6.271-13.814 13.979-13.814h12.714c7.708 0 13.979 6.196 13.979 13.814s-6.271 13.814-13.979 13.814zM588.294 399.119c-42.765 0-77.557-34.324-77.557-76.512s34.792-76.512 77.557-76.512c16.745 0 32.704 5.209 46.124 15.041 0.136 0.078 0.269 0.161 0.397 0.255 0.37 0.273 0.72 0.563 0.931 0.762 19.13 14.648 30.102 36.683 30.102 60.453 0 42.188-34.79 76.512-77.555 76.512zM540.727 336.422c4.746 15.792 17.557 28.408 33.587 33.074v-33.074h-33.587zM602.27 369.5c21.104-6.082 35.622-25.011 35.622-46.892 0-10.533-3.492-20.817-9.881-29.233l-25.741 33.844v42.281zM605.632 276.819c-5.552-2.055-11.373-3.094-17.338-3.094-22.189 0-41.386 14.29-47.571 35.069h40.589l24.32-31.975z" />
<glyph unicode="&#xe91b;" glyph-name="ic_titles_edit_delegate_profile" d="M437.062 101.839c-0.875 0-1.791 0.080-2.746 0.239-169.311 33.027-292.186 183.397-292.186 357.503 0 200.806 162.069 364.188 361.303 364.188s361.303-163.382 361.303-364.188c0-7.879-6.367-14.265-14.245-14.265s-14.245 6.386-14.245 14.265c0 185.088-149.296 335.658-332.813 335.658s-332.813-150.57-332.813-335.658c0-160.497 113.206-299.090 269.187-329.49 7.719-1.512 12.773-8.993 11.261-16.752-1.353-6.804-7.322-11.5-14.007-11.5zM870.263 372.146l-37.895 37.91c-15.477 15.484-40.647 15.457-56.123 0l-204.645-204.728-28.201-103.475-6.902-6.903c-5.16-5.162-5.172-13.488-0.079-18.689l-0.068-0.267 0.253 0.067c2.58-2.54 5.931-3.83 9.295-3.83 3.404 0 6.808 1.303 9.401 3.898l6.914 6.916 103.42 28.214 204.633 204.728c15.476 15.496 15.476 40.676 0 56.159zM602.299 198.426l136.196 136.251 56.417-56.427-136.196-136.263-56.417 56.44zM590.305 172.806l42.816-42.832-58.877-16.068 16.061 58.9zM851.46 334.809l-37.747-37.764-56.418 56.427 37.749 37.763c5.119 5.122 13.429 5.109 18.535 0.014l37.895-37.91c5.092-5.095 5.092-13.422-0.015-18.53zM611.499 348.752v-69.002c0 0-180.409-0.223-222.123-0.592 0.045-3.409 0.089-6.816 0.133-10.225 57.002 0.069 210.855 0.408 210.855 0.408s-15.786-25.407-22.939-28.275c-2.494-0.999-5.252-0.982-7.932-0.952-28.897 0.336-36.038 0.206-64.936 0.206-59.947 0-119.893 0-179.841 0-1.796 0-3.498 0.709-4.793 1.987-1.325 1.346-2.056 3.143-2.056 4.98l0.004 31.967c0.030 2.036 1.487 48.314 64.911 81.768 9.881 5.329 21.581 10.29 34.739 14.741l3.136 1.836c13.565 7.656 24.662 14.961 30.966 20.34v16.727c-28.027 17.784-47.215 47.276-54.372 83.594-5.269 26.249-5.269 70.282-5.269 70.282h-24.275c-3.772 0-6.843 3.125-6.843 6.966v7.351c0 5.618 5.901 46.393 27.482 52.676 12.761 35.225 39.066 63.449 72.835 78.155v8.783c0 3.842 3.070 6.965 6.843 6.965h90.76c3.778 0 6.85-3.122 6.85-6.965v-8.783c33.723-14.696 60.019-42.91 72.794-78.141 21.615-6.253 27.522-47.066 27.522-52.69v-7.351c0-3.841-3.070-6.966-6.838-6.966h-24.285c0 0 0-47.865-5.26-70.282-7.153-36.307-26.345-65.798-54.378-83.594v-16.727c20.826-17.785 47.811-26.809 72.389-37.858 2.177-0.979 36.732-17.531 34.906-19.112-4.139-3.583-13.691-9.97-17.326-13.097-14.999 6.472-32.675 13.46-53.66 20.88zM375.193 322.549c-27.954-21.667-29.264-42.895-29.309-43.863l0.005-9.731h14.973v15.080c0 9.651 5.833 18.404 14.33 22.147v16.367zM413.41 343.826c-3.562-1.427-6.966-2.914-10.194-4.431v-31.259h10.194v35.689zM461.181 681.758c-17.874-10.529-32.689-26.547-41.976-45.395h41.976v45.395zM537.609 700.811h-48.407v-64.449h48.407v64.449zM565.634 681.754v-45.391h41.936c-9.292 18.848-24.089 34.866-41.936 45.391zM634.826 597.171c-1.698 4.78-3.64 8.652-4.867 10.564h-233.209c-1.065-1.737-3.038-5.66-4.769-10.564h242.845zM603.38 511.62c0.735 5.344 1.108 11.173 1.108 17.35v39.572h-182.163v-39.572c0-6.137 0.372-11.966 1.103-17.32 4.632-34.347 22.366-62.043 48.662-75.986 12.382-6.606 26.276-9.949 41.318-9.949 15.057 0 28.941 3.343 41.284 9.931 26.315 13.961 44.065 41.647 48.687 75.974zM479.65 401.871v-4.331c5.289-5.109 18.325-15.919 33.758-15.919 15.557 0 28.519 10.799 33.759 15.9v4.35c-21.45-6.367-46.067-6.367-67.517 0zM585.384 356.721c-7.251 4.292-16.258 9.96-23.705 15.669-9.773-8.293-26.856-19.392-48.271-19.392-21.418 0-38.501 11.099-48.274 19.392-7.472-5.728-16.469-11.387-23.701-15.679v-48.574h143.951v48.584z" />
<glyph unicode="&#xe91c;" glyph-name="ic_status_rectangle" d="M128.711 831.289h766.578v-766.578h-766.578v766.578z" />
<glyph unicode="&#xe91d;" glyph-name="ic_status_triangle" d="M512 807.824l490.817-719.647h-981.633z" />
<glyph unicode="&#xe91e;" glyph-name="ic_status_circle" d="M922.667 448c0-226.805-183.862-410.667-410.667-410.667s-410.667 183.862-410.667 410.667c0 226.805 183.862 410.667 410.667 410.667s410.667-183.862 410.667-410.667z" />
</font>
</defs>
</svg>
